<svg width="20" height="20" viewBox="0 0 20 20" fill="none" xmlns="http://www.w3.org/2000/svg">
<path d="M10.9438 1V4C10.9438 4.19891 10.8648 4.38968 10.7242 4.53033C10.5835 4.67098 10.3928 4.75 10.1938 4.75C9.99494 4.75 9.80417 4.67098 9.66352 4.53033C9.52287 4.38968 9.44385 4.19891 9.44385 4V1C9.44385 0.801088 9.52287 0.610322 9.66352 0.46967C9.80417 0.329018 9.99494 0.25 10.1938 0.25C10.3928 0.25 10.5835 0.329018 10.7242 0.46967C10.8648 0.610322 10.9438 0.801088 10.9438 1ZM19.1938 9.25H16.1938C15.9949 9.25 15.8042 9.32902 15.6635 9.46967C15.5229 9.61032 15.4438 9.80109 15.4438 10C15.4438 10.1989 15.5229 10.3897 15.6635 10.5303C15.8042 10.671 15.9949 10.75 16.1938 10.75H19.1938C19.3928 10.75 19.5835 10.671 19.7242 10.5303C19.8648 10.3897 19.9438 10.1989 19.9438 10C19.9438 9.80109 19.8648 9.61032 19.7242 9.46967C19.5835 9.32902 19.3928 9.25 19.1938 9.25ZM14.9667 13.7125C14.8249 13.5778 14.6361 13.5038 14.4405 13.5063C14.2449 13.5088 14.0581 13.5876 13.9198 13.7259C13.7814 13.8642 13.7026 14.0511 13.7001 14.2466C13.6976 14.4422 13.7716 14.631 13.9063 14.7728L16.027 16.8944C16.1677 17.0351 16.3586 17.1142 16.5576 17.1142C16.7566 17.1142 16.9475 17.0351 17.0882 16.8944C17.229 16.7536 17.308 16.5628 17.308 16.3638C17.308 16.1647 17.229 15.9739 17.0882 15.8331L14.9667 13.7125ZM10.1938 15.25C9.99494 15.25 9.80417 15.329 9.66352 15.4697C9.52287 15.6103 9.44385 15.8011 9.44385 16V19C9.44385 19.1989 9.52287 19.3897 9.66352 19.5303C9.80417 19.671 9.99494 19.75 10.1938 19.75C10.3928 19.75 10.5835 19.671 10.7242 19.5303C10.8648 19.3897 10.9438 19.1989 10.9438 19V16C10.9438 15.8011 10.8648 15.6103 10.7242 15.4697C10.5835 15.329 10.3928 15.25 10.1938 15.25ZM5.42103 13.7125L3.29947 15.8331C3.15874 15.9739 3.07968 16.1647 3.07968 16.3638C3.07968 16.5628 3.15874 16.7536 3.29947 16.8944C3.4402 17.0351 3.63107 17.1142 3.8301 17.1142C4.02912 17.1142 4.21999 17.0351 4.36072 16.8944L6.48135 14.7728C6.61606 14.631 6.69006 14.4422 6.68755 14.2466C6.68505 14.0511 6.60625 13.8642 6.46794 13.7259C6.32964 13.5876 6.14279 13.5088 5.94722 13.5063C5.75164 13.5038 5.56283 13.5778 5.42103 13.7125ZM4.94385 10C4.94385 9.80109 4.86483 9.61032 4.72418 9.46967C4.58353 9.32902 4.39276 9.25 4.19385 9.25H1.19385C0.994935 9.25 0.80417 9.32902 0.663518 9.46967C0.522865 9.61032 0.443848 9.80109 0.443848 10C0.443848 10.1989 0.522865 10.3897 0.663518 10.5303C0.80417 10.671 0.994935 10.75 1.19385 10.75H4.19385C4.39276 10.75 4.58353 10.671 4.72418 10.5303C4.86483 10.3897 4.94385 10.1989 4.94385 10ZM4.36072 3.10562C4.21999 2.96489 4.02912 2.88583 3.8301 2.88583C3.63107 2.88583 3.4402 2.96489 3.29947 3.10562C3.15874 3.24636 3.07968 3.43723 3.07968 3.63625C3.07968 3.83527 3.15874 4.02614 3.29947 4.16687L5.42103 6.2875C5.56283 6.42221 5.75164 6.49621 5.94722 6.4937C6.14279 6.4912 6.32964 6.4124 6.46794 6.2741C6.60625 6.1358 6.68505 5.94894 6.68755 5.75337C6.69006 5.5578 6.61606 5.36898 6.48135 5.22719L4.36072 3.10562Z" fill="#F9FAFB"/>
</svg>
