<svg width="18" height="17" viewBox="0 0 18 17" fill="none" xmlns="http://www.w3.org/2000/svg">
<path d="M15.2492 8.81145C15.2504 9.01036 15.1725 9.2016 15.0327 9.34311C14.8929 9.48461 14.7026 9.56479 14.5037 9.566L9.75382 9.59486L9.78268 14.3448C9.78389 14.5437 9.70603 14.7349 9.56624 14.8764C9.42644 15.0179 9.23616 15.0981 9.03725 15.0993C8.83834 15.1005 8.6471 15.0227 8.5056 14.8829C8.36409 14.7431 8.28392 14.5528 8.28271 14.3539L8.25385 9.60397L3.50394 9.63283C3.30503 9.63403 3.11379 9.55618 2.97228 9.41638C2.83078 9.27659 2.75061 9.08631 2.7494 8.8874C2.74819 8.68849 2.82605 8.49725 2.96584 8.35574C3.10564 8.21424 3.29592 8.13406 3.49483 8.13285L8.24474 8.104L8.21588 3.35408C8.21467 3.15518 8.29253 2.96393 8.43232 2.82243C8.57212 2.68092 8.7624 2.60075 8.96131 2.59954C9.16022 2.59833 9.35146 2.67619 9.49296 2.81598C9.63447 2.95578 9.71464 3.14606 9.71585 3.34497L9.74471 8.09488L14.4946 8.06602C14.6935 8.06482 14.8848 8.14267 15.0263 8.28247C15.1678 8.42226 15.248 8.61255 15.2492 8.81145Z" fill="#F9FAFB"/>
</svg>
